<svg width="16" height="15" viewBox="0 0 16 15" fill="none" xmlns="http://www.w3.org/2000/svg">
<path d="M10.8 5.27972C11.9139 5.27972 12.9822 5.72807 13.7699 6.52614C14.5575 7.32421 15 8.40662 15 9.53526V14.5H12.2V9.53526C12.2 9.15904 12.0525 8.79824 11.79 8.53222C11.5274 8.2662 11.1713 8.11675 10.8 8.11675C10.4287 8.11675 10.0726 8.2662 9.81006 8.53222C9.54751 8.79824 9.40001 9.15904 9.40001 9.53526V14.5H6.60001V9.53526C6.60001 8.40662 7.0425 7.32421 7.83016 6.52614C8.61781 5.72807 9.6861 5.27972 10.8 5.27972Z" stroke="white" stroke-linecap="round" stroke-linejoin="round"/>
<path d="M3.8 5.98895H1V14.5H3.8V5.98895Z" stroke="white" stroke-linecap="round" stroke-linejoin="round"/>
<path d="M2.4 3.86119C3.1732 3.86119 3.8 3.2261 3.8 2.44268C3.8 1.65926 3.1732 1.02417 2.4 1.02417C1.6268 1.02417 1 1.65926 1 2.44268C1 3.2261 1.6268 3.86119 2.4 3.86119Z" stroke="white" stroke-linecap="round" stroke-linejoin="round"/>
</svg>
