<?xml version="1.0" encoding="utf-8"?>
<!-- Generator: Adobe Illustrator 25.4.1, SVG Export Plug-In . SVG Version: 6.00 Build 0)  -->
<svg version="1.1" id="Capa_1" xmlns="http://www.w3.org/2000/svg" xmlns:xlink="http://www.w3.org/1999/xlink" x="0px" y="0px"
	 viewBox="0 0 24 24" style="enable-background:new 0 0 24 24;" xml:space="preserve">
<style type="text/css">
	.st0{clip-path:url(#SVGID_00000070101796419095503910000014265233645764762277_);}
	.st1{fill-rule:evenodd;clip-rule:evenodd;fill:#305AE2;}
</style>
<g>
	<defs>
		<rect id="SVGID_1_" width="24" height="24"/>
	</defs>
	<clipPath id="SVGID_00000170255364202964052540000016659405819658425760_">
		<use xlink:href="#SVGID_1_"  style="overflow:visible;"/>
	</clipPath>
	<g style="clip-path:url(#SVGID_00000170255364202964052540000016659405819658425760_);">
		<path class="st1" d="M0.5,7.2c0.1-0.9,0.1-1.8,0.2-2.6c0.1-2.1,1.6-4.1,3.9-4.5C4.9,0.1,5.2,0,5.6,0c0.4,0,0.7,0,1.1,0.1
			c2.3,0.3,3.8,2.4,3.9,4.5l0,0.5C11,5,11.5,5,12,5c0.5,0,1,0,1.4,0.1l0-0.5c0.1-2.1,1.6-4.1,3.9-4.5C17.7,0.1,18,0,18.4,0
			s0.7,0,1.1,0.1c2.3,0.3,3.8,2.4,3.9,4.5c0,0.8,0.1,1.7,0.2,2.6c0.2,3.6,0.5,7.5,0.4,11c0,0.1,0,0.2,0,0.3c0,3.1-2.5,5.6-5.6,5.6
			s-5.6-2.5-5.6-5.6c0-0.1,0-0.2,0-0.3c0-1.9,0.1-3.9,0.2-5.9c0-0.6,0.6-0.9,1.1-0.6c0.2,0.1,0.5,0.3,0.7,0.5
			c0.5,0.4,1.1,0.3,1.5-0.2c0.4-0.5,0.3-1.1-0.2-1.5c-1.3-1-2.6-1.6-4.1-1.6c-1.4,0-2.8,0.6-4.1,1.6c-0.5,0.4-0.6,1-0.2,1.5
			c0.4,0.5,1,0.6,1.5,0.2c0.3-0.2,0.5-0.4,0.7-0.5c0.5-0.3,1,0.1,1.1,0.6c0.1,2,0.2,4,0.2,5.9c0,0.1,0,0.2,0,0.3
			c0,3.1-2.5,5.6-5.6,5.6C2.5,24,0,21.5,0,18.4c0-0.1,0-0.2,0-0.3C0,14.7,0.3,10.8,0.5,7.2z M5.6,15.4c-1.7,0-3,1.3-3,3s1.3,3,3,3
			c1.7,0,3-1.3,3-3S7.3,15.4,5.6,15.4z M18.4,15.4c1.7,0,3,1.3,3,3s-1.3,3-3,3s-3-1.3-3-3S16.7,15.4,18.4,15.4z"/>
	</g>
</g>
</svg>
