<?xml version="1.0" encoding="utf-8"?>
<!-- Generator: Adobe Illustrator 25.4.1, SVG Export Plug-In . SVG Version: 6.00 Build 0)  -->
<svg version="1.1" id="Capa_1" xmlns="http://www.w3.org/2000/svg" xmlns:xlink="http://www.w3.org/1999/xlink" x="0px" y="0px"
	 viewBox="0 0 24 24" style="enable-background:new 0 0 24 24;" xml:space="preserve">
<style type="text/css">
	.st0{clip-path:url(#SVGID_00000089565358641022802200000000072177935263371166_);}
	.st1{fill-rule:evenodd;clip-rule:evenodd;fill:#305AE2;}
</style>
<g>
	<defs>
		<rect id="SVGID_1_" width="24" height="24"/>
	</defs>
	<clipPath id="SVGID_00000161626142814786267130000013222713426015574158_">
		<use xlink:href="#SVGID_1_"  style="overflow:visible;"/>
	</clipPath>
	<g style="clip-path:url(#SVGID_00000161626142814786267130000013222713426015574158_);">
		<path class="st1" d="M13.3,1.3C13.3,0.6,12.7,0,12,0c-0.7,0-1.3,0.6-1.3,1.3v0.9c0,0.7,0.6,1.3,1.3,1.3c0.7,0,1.3-0.6,1.3-1.3V1.3
			z M5.3,3.5C4.8,3,4,3,3.5,3.5C3,4,3,4.8,3.5,5.3L4.1,6C4.6,6.5,5.5,6.5,6,6c0.5-0.5,0.5-1.3,0-1.8L5.3,3.5z M24,12
			c0,0.7-0.6,1.3-1.3,1.3h-0.9c-0.7,0-1.3-0.6-1.3-1.3s0.6-1.3,1.3-1.3h0.9C23.4,10.7,24,11.3,24,12z M2.2,13.3
			c0.7,0,1.3-0.6,1.3-1.3s-0.6-1.3-1.3-1.3H1.3C0.6,10.7,0,11.3,0,12s0.6,1.3,1.3,1.3H2.2z M20.5,3.5C21,4,21,4.8,20.5,5.3L19.9,6
			c-0.5,0.5-1.3,0.5-1.8,0s-0.5-1.3,0-1.8l0.6-0.6C19.2,3,20,3,20.5,3.5z M11.9,5.8c1.2,0,2.3,0.3,3.4,0.8c1,0.6,1.9,1.4,2.5,2.4
			c0.6,1,0.9,2.2,0.9,3.4c0,1.2-0.4,2.4-1,3.5c-0.2,0.3-0.4,0.6-0.5,0.8l0,0c-0.6,0.9-0.9,1.3-1,2.2c0,0.4-0.4,0.8-0.9,0.8H8.8
			c-0.4,0-0.8-0.3-0.9-0.8c-0.1-0.9-0.4-1.3-1-2.2l0,0c-0.1-0.2-0.3-0.4-0.4-0.6c-0.6-1-1-2.1-1.1-3.3c-0.1-1.2,0.2-2.3,0.8-3.4
			c0.6-1,1.4-1.9,2.4-2.5C9.5,6.1,10.7,5.8,11.9,5.8z M14,24c0.7,0,1.3-0.6,1.3-1.3c0-0.7-0.6-1.3-1.3-1.3h-4
			c-0.7,0-1.3,0.6-1.3,1.3c0,0.7,0.6,1.3,1.3,1.3H14z"/>
	</g>
</g>
</svg>
