<?xml version="1.0" encoding="utf-8"?>
<!-- Generator: Adobe Illustrator 25.4.1, SVG Export Plug-In . SVG Version: 6.00 Build 0)  -->
<svg version="1.1" id="Capa_1" xmlns="http://www.w3.org/2000/svg" xmlns:xlink="http://www.w3.org/1999/xlink" x="0px" y="0px"
	 viewBox="0 0 77 28" style="enable-background:new 0 0 77 28;" xml:space="preserve">
<style type="text/css">
	.st0{clip-path:url(#SVGID_00000170271300629834331860000000117538956627320192_);}
	.st1{fill:#F7F7F7;}
</style>
<g>
	<defs>
		<rect id="SVGID_1_" width="77" height="28"/>
	</defs>
	<clipPath id="SVGID_00000129165999525383842610000014081269516562035858_">
		<use xlink:href="#SVGID_1_"  style="overflow:visible;"/>
	</clipPath>
	<g style="clip-path:url(#SVGID_00000129165999525383842610000014081269516562035858_);">
		<path class="st1" d="M39.5,15.6h-1.9V5.2h3.9c0.9,0,1.7,0.1,2.3,0.5c1.2,0.6,1.8,1.7,1.8,3.1c0,2.2-1.3,3.6-4.1,3.6h-2.1
			L39.5,15.6L39.5,15.6z M39.5,10.7h2.1c1.4,0,2.2-0.7,2.2-2c0-1.1-0.7-1.9-2.2-1.9h-2V10.7z"/>
		<path class="st1" d="M50.8,15.8c-2.8,0-4.2-1.6-4.2-4.2v-0.2c0-0.9,0.2-1.7,0.5-2.3c0.7-1.3,2-2.1,3.7-2.1c1.4,0,2.5,0.5,3.1,1.3
			c0.7,0.8,1,1.8,1,2.9v0.9h-6.5c0.2,1.4,1,2.1,2.4,2.1c1,0,1.6-0.4,1.9-1.1h2.1C54.3,14.8,53,15.8,50.8,15.8L50.8,15.8z M48.5,10.6
			H53c-0.1-1.3-0.8-2.1-2.2-2.1C49.5,8.5,48.7,9.3,48.5,10.6z"/>
		<path class="st1" d="M56.3,7.2h1.5l0.2,2c0.3-1.4,1.2-2,2.8-2h0.6v1.9h-0.8c-0.7,0-1.2,0.1-1.5,0.3c-0.7,0.3-0.9,1.1-0.9,2.4v3.9
			h-1.9V7.2z"/>
		<path class="st1" d="M62.8,7.2h1.5l0.2,2c0.3-1.4,1.2-2,2.8-2h0.6v1.9h-0.8c-0.7,0-1.2,0.1-1.5,0.3c-0.7,0.3-0.9,1.1-0.9,2.4v3.9
			h-1.9V7.2z"/>
		<path class="st1" d="M68.5,11.6v-0.2c0-0.9,0.2-1.7,0.6-2.4c0.7-1.3,2-2,3.7-2c0.8,0,1.6,0.2,2.2,0.5c1.3,0.7,2,2,2,3.8v0.2
			c0,0.9-0.2,1.7-0.5,2.3c-0.7,1.3-2,1.9-3.7,1.9C70.1,15.8,68.5,14.3,68.5,11.6L68.5,11.6z M75.1,11.5v-0.2c0-1.7-0.9-2.7-2.3-2.7
			c-1.4,0-2.3,0.9-2.3,2.7v0.2c0,1.7,0.8,2.6,2.3,2.6C74.2,14.1,75.1,13.2,75.1,11.5z"/>
		<path class="st1" d="M37.6,17.8h3.8c2.7,0,3.8,0.9,3.8,2.6c0,1.2-0.5,1.9-1.4,2.3c1.1,0.4,1.6,1,1.6,2.3c0,1.8-1.2,2.9-3.8,2.9h-4
			V17.8z M39.4,21.9h2.1c1.2,0,1.9-0.4,1.9-1.4c0-0.9-0.6-1.3-1.9-1.3h-2.1V21.9z M39.4,26.2h2c1.6,0,2.2-0.5,2.2-1.4
			s-0.7-1.4-2.1-1.4h-2V26.2z"/>
		<path class="st1" d="M46.7,19.7h1.5l0.2,1.9c0.3-1.3,1.2-2,2.7-2h0.5v1.9h-0.8c-0.6,0-1.1,0.1-1.5,0.3c-0.7,0.3-0.9,1-0.9,2.3v3.7
			h-1.8L46.7,19.7L46.7,19.7z"/>
		<path class="st1" d="M54.8,28c-1.8,0-2.6-0.8-2.6-2.2c0-0.9,0.4-1.6,1.1-2c0.2-0.2,0.5-0.3,0.7-0.3c0.5-0.2,1.1-0.3,2.1-0.4
			c1.4-0.2,2-0.4,2-1c0-0.7-0.4-1.1-1.7-1.1c-1.3,0-1.9,0.6-2,1.6h-1.9c0.1-1.8,1.5-3.1,3.8-3.1c0.9,0,1.6,0.1,2.1,0.4
			c1.1,0.4,1.5,1.3,1.5,2.5v5.5h-1.5l-0.2-1.6C57.6,27.2,56.5,28,54.8,28L54.8,28z M56.8,26.2c0.8-0.5,1.2-1.3,1.2-2.1v-0.4
			c-0.3,0.2-0.9,0.4-1.6,0.5c-1,0.2-1.4,0.3-1.8,0.5c-0.3,0.2-0.5,0.5-0.5,0.8c0,0.7,0.4,1,1.3,1C56,26.6,56.4,26.5,56.8,26.2
			L56.8,26.2z"/>
		<path class="st1" d="M60.4,19.7h1.9l2.1,5.8l2.2-5.8h1.9l-3.3,8.1h-1.6L60.4,19.7L60.4,19.7z"/>
		<path class="st1" d="M68.7,23.9v-0.2c0-0.9,0.2-1.7,0.5-2.3c0.7-1.2,2-1.9,3.5-1.9c0.8,0,1.5,0.2,2.1,0.5c1.2,0.7,2,1.9,2,3.7v0.2
			c0,0.9-0.2,1.6-0.5,2.2c-0.7,1.2-1.9,1.9-3.6,1.9C70.2,28,68.7,26.6,68.7,23.9L68.7,23.9z M75,23.9v-0.2c0-1.7-0.9-2.6-2.2-2.6
			c-1.3,0-2.2,0.9-2.2,2.6v0.2c0,1.6,0.8,2.5,2.2,2.5C74.2,26.4,75,25.5,75,23.9z"/>
		<path class="st1" d="M75.5,19.3h-0.1v-0.9h-0.3v-0.1h0.7v0.1h-0.3V19.3z M76.1,19.3H76v-1h0.1l0.3,0.5l0.3-0.5h0.1v1h-0.1v-0.8
			l-0.3,0.4h0l-0.3-0.4V19.3z"/>
		<path class="st1" d="M5.2,22c0,0-0.5-1-0.3-2.6c0,0,0.3-0.4,0.2-1c-1.3,0-2.3,0-2.8,0C2.6,19.7,3.4,21.9,5.2,22z"/>
		<path class="st1" d="M6.3,18.4c0,0.5,0.1,1.1,0.3,1.3c0,0,0.7,1.9,2,2.1c0,0-0.3-1.8,0.5-3.4L6.3,18.4L6.3,18.4z"/>
		<path class="st1" d="M10.5,18.4c0.4,0.8,1.1,2.1,1.9,2.7c0,0,0.1-1.7,0.4-2.7C12.1,18.4,11.4,18.4,10.5,18.4z"/>
		<path class="st1" d="M15.7,20.6l0.3-1.9c-0.8-0.2-1.4-0.2-2.1-0.3C14.2,19,14.7,20.1,15.7,20.6z"/>
		<path class="st1" d="M26.2,0.2c0-0.2-0.2-0.2-0.4,0c-0.5,0.9-1.9,2.5-4.6,4.3c-1.4,0.9-2.7,2.2-3.3,3.3c0,0,0,0,0,0
			c1.3,0,3,0.1,4.8,0.2c0.1,0,0.2,0,0.2-0.1l3.5-3c0,0,0.1-0.1,0.1-0.1C26.5,2.8,26.3,1.2,26.2,0.2L26.2,0.2z"/>
		<path class="st1" d="M33.4,12.1c0-0.6-0.1-1.2-0.7-1.4L30.6,10c1.1-3.3,1.1-6.8,1.1-8c0,0,0,0,0,0c0,0,0,0,0,0c0,0,0,0,0,0
			c0,0,0,0,0,0c0,0,0,0,0,0c0,0,0,0,0,0c0,0,0,0,0,0c0,0,0,0,0,0c0,0,0,0,0,0c0,0,0,0,0,0c0,0,0,0,0,0s0,0,0,0c0,0,0,0,0,0
			c0,0,0,0,0,0c0,0,0,0,0,0c0,0,0,0,0,0c0,0,0,0,0,0c0,0,0,0,0,0c0,0,0,0,0,0c0,0,0,0,0,0c0,0,0,0,0,0c0,0,0,0,0,0c0,0,0,0,0,0
			s0,0,0,0c0,0,0,0,0,0c0,0,0,0,0,0s0,0,0,0c0,0,0,0,0,0c0,0,0,0,0,0c0,0,0,0,0,0c0,0,0,0,0,0c0,0,0,0,0,0c0,0,0,0,0,0c0,0,0,0,0,0
			c0,0,0,0,0,0c0,0,0,0,0,0c0,0,0,0,0,0c0,0,0,0,0,0c0,0,0,0,0,0c0,0,0,0,0,0c0,0,0,0,0,0c0,0,0,0,0,0l-4.9,4.7L23.7,9
			c-0.1,0-0.1,0-0.2,0C9.8,8.1,0.1,11,0.1,11L0,12.9c-0.1,1.5,0.2,2.4,0.9,3.6c0,0,0.6,1.2,1.9,1.2h10.9c0,0,3.1,0,5.4,1.5
			c0,0-0.8,3.5-7.9,3.5c-4.4,0-8,1.9-8,1.9s-0.4,2,1.1,2.9h18.8C23.2,27.4,32.2,27,33.4,12.1L33.4,12.1z"/>
	</g>
</g>
</svg>
