<?xml version="1.0" encoding="utf-8"?>
<!-- Generator: Adobe Illustrator 25.4.1, SVG Export Plug-In . SVG Version: 6.00 Build 0)  -->
<svg version="1.1" id="Capa_1" xmlns="http://www.w3.org/2000/svg" xmlns:xlink="http://www.w3.org/1999/xlink" x="0px" y="0px"
	 viewBox="0 0 15 15" style="enable-background:new 0 0 15 15;" xml:space="preserve">
<style type="text/css">
	.st0{clip-path:url(#SVGID_00000158016141446442062310000008493441574746300820_);}
	.st1{fill:none;stroke:#000111;}
</style>
<g>
	<defs>
		<rect id="SVGID_1_" width="15" height="15"/>
	</defs>
	<clipPath id="SVGID_00000155118980626242631630000011189978889917514404_">
		<use xlink:href="#SVGID_1_"  style="overflow:visible;"/>
	</clipPath>
	<g style="clip-path:url(#SVGID_00000155118980626242631630000011189978889917514404_);">
		<path class="st1" d="M11,3.5h1 M4.5,0.5h6c1.1,0,2.1,0.4,2.8,1.2c0.8,0.8,1.2,1.8,1.2,2.8v6c0,1.1-0.4,2.1-1.2,2.8
			c-0.8,0.8-1.8,1.2-2.8,1.2h-6c-1.1,0-2.1-0.4-2.8-1.2c-0.8-0.8-1.2-1.8-1.2-2.8v-6c0-1.1,0.4-2.1,1.2-2.8C2.4,0.9,3.4,0.5,4.5,0.5
			z M7.5,10.5c-0.8,0-1.6-0.3-2.1-0.9C4.8,9.1,4.5,8.3,4.5,7.5s0.3-1.6,0.9-2.1s1.3-0.9,2.1-0.9s1.6,0.3,2.1,0.9
			c0.6,0.6,0.9,1.3,0.9,2.1s-0.3,1.6-0.9,2.1C9.1,10.2,8.3,10.5,7.5,10.5z"/>
	</g>
</g>
</svg>
