<svg width="96" height="21" viewBox="0 0 96 21" fill="none" xmlns="http://www.w3.org/2000/svg">
<path d="M3.85346 16.8299C3.85346 16.8299 3.45549 16.0669 3.66596 14.8603C3.66596 14.8603 3.87451 14.5527 3.84581 14.1012C2.89105 14.0913 2.12763 14.1012 1.74113 14.1012C1.95352 15.0732 2.51604 16.7866 3.85346 16.828V16.8299Z" fill="white"/>
<path d="M4.71638 14.1012C4.74509 14.466 4.80823 14.947 4.96321 15.0634C4.96321 15.0634 5.5066 16.5046 6.44031 16.686C6.44031 16.686 6.20305 15.2842 6.82106 14.1012H4.7183H4.71638Z" fill="white"/>
<path d="M7.81792 14.1012C8.08387 14.6828 8.61769 15.7002 9.26249 16.1675C9.26249 16.1675 9.34859 14.8938 9.54566 14.1012C9.03098 14.1051 8.47037 14.0973 7.81792 14.1012Z" fill="white"/>
<path d="M11.6848 15.785L11.9278 14.3043C11.2964 14.1564 10.8888 14.1347 10.3588 14.1032C10.554 14.5783 10.95 15.3907 11.6848 15.785Z" fill="white"/>
<path d="M19.5103 0.141945C19.4912 -0.0374744 19.3401 -0.0433894 19.2501 0.110399C18.8445 0.798503 17.8151 2.05839 15.8004 3.38333C14.7289 4.08721 13.8028 5.02965 13.3264 5.89126C13.3226 5.89718 13.3264 5.90507 13.3341 5.90507C14.2774 5.90507 15.5631 5.94253 16.8738 6.049C16.9388 6.05491 17.0058 6.03125 17.0555 5.98788L19.6462 3.70471C19.6749 3.67908 19.6921 3.64162 19.6921 3.60416C19.6978 2.17471 19.5888 0.883284 19.5103 0.141945Z" fill="white"/>
<path d="M24.8352 9.25882C24.8715 8.7876 24.7472 8.32426 24.3473 8.19216L22.8051 7.67953C23.5896 5.14005 23.6355 2.4941 23.6221 1.52405C23.6221 1.51814 23.6221 1.51222 23.6221 1.50631V1.50237C23.6221 1.49842 23.6221 1.49251 23.6202 1.48857C23.6202 1.48857 23.6202 1.48659 23.6202 1.48462C23.6202 1.47871 23.6183 1.47279 23.6164 1.46885C23.6164 1.46885 23.6164 1.46688 23.6164 1.46491C23.6164 1.46096 23.6145 1.45702 23.6125 1.45308C23.6125 1.45308 23.6125 1.4511 23.6125 1.44913C23.6106 1.44322 23.6087 1.43927 23.6068 1.43533C23.6049 1.43139 23.603 1.42547 23.5992 1.42153C23.5992 1.42153 23.5992 1.41956 23.5972 1.41759C23.5953 1.41364 23.5934 1.4097 23.5896 1.40773C23.5896 1.40773 23.5896 1.40773 23.5896 1.40576C23.5858 1.40181 23.5838 1.39787 23.58 1.39393C23.58 1.39393 23.58 1.39393 23.5781 1.39195C23.5762 1.38998 23.5724 1.38604 23.5705 1.38407C23.5705 1.38407 23.5705 1.38407 23.5685 1.3821C23.5647 1.37815 23.5609 1.37618 23.5571 1.37224C23.5532 1.37027 23.5494 1.36632 23.5456 1.36435C23.5456 1.36435 23.5437 1.36435 23.5418 1.36238C23.5379 1.36238 23.536 1.35844 23.5322 1.35646C23.5322 1.35646 23.5322 1.35646 23.5303 1.35646C23.5264 1.35646 23.5226 1.35252 23.5188 1.35055C23.5188 1.35055 23.5169 1.35055 23.515 1.35055C23.5111 1.35055 23.5073 1.34858 23.5054 1.34661C23.5054 1.34661 23.5035 1.34661 23.5016 1.34661C23.4977 1.34661 23.492 1.34661 23.4882 1.34464C23.4844 1.34464 23.4805 1.34464 23.4767 1.34464C23.4767 1.34464 23.4748 1.34464 23.4729 1.34464C23.471 1.34464 23.4671 1.34464 23.4652 1.34464C23.4652 1.34464 23.4633 1.34464 23.4614 1.34464C23.4595 1.34464 23.4557 1.34464 23.4537 1.34464C23.4537 1.34464 23.4518 1.34464 23.4499 1.34464C23.4461 1.34464 23.4423 1.34464 23.4384 1.34858C23.4346 1.34858 23.4308 1.35055 23.4289 1.35252C23.4289 1.35252 23.427 1.35252 23.425 1.35252C23.4231 1.35252 23.4193 1.35449 23.4174 1.35646C23.4174 1.35646 23.4155 1.35646 23.4136 1.35844C23.4116 1.35844 23.4078 1.36041 23.4059 1.36238C23.4059 1.36238 23.404 1.36238 23.4021 1.36435C23.4002 1.36435 23.3963 1.36829 23.3944 1.37027C23.3944 1.37027 23.3925 1.37027 23.3906 1.37224C23.3868 1.37618 23.3829 1.37815 23.3791 1.3821L19.7667 4.98035L17.6027 6.91848C17.5626 6.94411 17.5186 6.95594 17.4726 6.952C7.2994 6.16531 0.0975809 8.40707 0.0975809 8.40707L0.0114805 9.87003C-0.0554864 10.9939 0.189421 11.6721 0.702197 12.6146C0.702197 12.6146 1.1327 13.4959 2.11042 13.4959H10.2211C10.2211 13.4959 12.5133 13.4919 14.2601 14.6513C14.2601 14.6513 13.6574 17.3307 8.35939 17.3307C5.09906 17.3307 2.42229 18.7957 2.42229 18.7957C2.42229 18.7957 2.10276 20.3178 3.2412 20.998H17.2335C17.2335 20.998 23.9799 20.6372 24.8352 9.25685V9.25882Z" fill="white"/>
<path d="M93.8628 19.1368H93.6581V17.8099H93.2314V17.6147H94.3048V17.8099H93.8628V19.1368ZM94.8137 19.1368H94.6147V17.6147H94.7946L95.3054 18.3343L95.8163 17.6147H96V19.1368H95.801V17.9558L95.3399 18.6064H95.271L94.8137 17.9617V19.1368Z" fill="white"/>
<path d="M37.8784 19.1368H35.414V7.74068H31.7825V5.52652H41.6554V7.74068H37.8765V19.1368H37.8784Z" fill="white"/>
<path d="M46.3277 19.4227C42.7345 19.4227 40.9742 17.2854 40.9742 13.8883V13.6201C40.9742 12.4371 41.1962 11.4631 41.6401 10.5858C42.5298 8.86846 44.1599 7.89447 46.4004 7.89447C48.2334 7.89447 49.5307 8.54314 50.3821 9.59403C51.2336 10.6429 51.6047 11.9994 51.6047 13.4111V14.5764H43.3793C43.5821 16.3706 44.6574 17.3623 46.4177 17.3623C47.7149 17.3623 48.4745 16.8477 48.8438 15.8915H51.4555C50.8451 18.1253 49.1212 19.4227 46.3239 19.4227H46.3277ZM43.4003 12.6087H49.1805C49.0141 10.9288 48.1244 9.87992 46.4196 9.87992C44.7148 9.87992 43.6778 10.8717 43.4003 12.6087Z" fill="white"/>
<path d="M53.4033 8.16065H55.3664L55.6821 10.7376C56.1087 8.92368 57.2013 8.06601 59.2198 8.06601H59.9431V10.6055H58.8869C58.0355 10.6055 57.406 10.7198 56.9602 10.9486C56.0705 11.3882 55.793 12.3425 55.793 14.0598V19.1368H53.4033V8.16065Z" fill="white"/>
<path d="M61.5924 8.16065H63.5555L63.8712 10.7376C64.2978 8.92368 65.3904 8.06601 67.4089 8.06601H68.1322V10.6055H67.076C66.2246 10.6055 65.5951 10.7198 65.1493 10.9486C64.2596 11.3882 63.9821 12.3425 63.9821 14.0598V19.1368H61.5924V8.16065Z" fill="white"/>
<path d="M69.6131 5.31752C69.6131 4.0951 70.1507 3.67514 71.2241 3.67514C72.2975 3.67514 72.8352 4.0951 72.8352 5.31752C72.8352 6.53994 72.3167 6.97765 71.2241 6.97765C70.057 6.97765 69.6131 6.5774 69.6131 5.31752ZM69.9652 8.16261H72.4295V19.1388H69.9652V8.16261Z" fill="white"/>
<path d="M79.6161 19.4227C76.0228 19.4227 74.2625 17.2854 74.2625 13.8883V13.6201C74.2625 12.4371 74.4845 11.4631 74.9284 10.5858C75.8181 8.86846 77.4482 7.89447 79.6888 7.89447C81.5217 7.89447 82.819 8.54314 83.6704 9.59403C84.5219 10.6429 84.8931 11.9994 84.8931 13.4111V14.5764H76.6676C76.8704 16.3706 77.9457 17.3623 79.706 17.3623C81.0032 17.3623 81.7628 16.8477 82.1321 15.8915H84.7438C84.1335 18.1253 82.4095 19.4227 79.6122 19.4227H79.6161ZM76.6886 12.6087H82.4688C82.3024 10.9288 81.4127 9.87992 79.7079 9.87992C78.0031 9.87992 76.9661 10.8717 76.6886 12.6087Z" fill="white"/>
<path d="M86.6916 8.16065H88.6547L88.9704 10.7376C89.3971 8.92368 90.4896 8.06601 92.5081 8.06601H93.2295V10.6055H92.1733C91.3219 10.6055 90.6924 10.7198 90.2466 10.9486C89.3569 11.3882 89.0794 12.3425 89.0794 14.0598V19.1368H86.6897V8.16065H86.6916Z" fill="white"/>
</svg>
