<?xml version="1.0" encoding="utf-8"?>
<!-- Generator: Adobe Illustrator 25.4.1, SVG Export Plug-In . SVG Version: 6.00 Build 0)  -->
<svg version="1.1" id="Capa_1" xmlns="http://www.w3.org/2000/svg" xmlns:xlink="http://www.w3.org/1999/xlink" x="0px" y="0px"
	 viewBox="0 0 24 24" style="enable-background:new 0 0 24 24;" xml:space="preserve">
<style type="text/css">
	.st0{fill-rule:evenodd;clip-rule:evenodd;fill:#305AE2;}
</style>
<path class="st0" d="M8.5,1.9c-0.8,0-1.6,0.5-2,1.1C6,3.5,5.7,4.3,5.7,5.2c0,0.9,0.3,1.7,0.7,2.3c0.5,0.6,1.2,1.1,2,1.1
	s1.6-0.5,2-1.1c0.5-0.6,0.7-1.4,0.7-2.3c0-0.9-0.3-1.7-0.7-2.3C10,2.3,9.3,1.9,8.5,1.9z M15.5,1.9c-0.8,0-1.6,0.5-2,1.1
	c-0.5,0.6-0.7,1.4-0.7,2.3c0,0.9,0.3,1.7,0.7,2.3c0.5,0.6,1.2,1.1,2,1.1c0.8,0,1.6-0.5,2-1.1c0.5-0.6,0.7-1.4,0.7-2.3
	c0-0.9-0.3-1.7-0.7-2.3C17.1,2.3,16.4,1.9,15.5,1.9z M20.7,8.2c-1.7,0-2.8,1.7-2.8,3.3c0,1.7,1.1,3.3,2.8,3.3c1.7,0,2.8-1.7,2.8-3.3
	C23.5,9.8,22.4,8.2,20.7,8.2z M3.3,8.2c-1.7,0-2.8,1.7-2.8,3.3c0,1.7,1.1,3.3,2.8,3.3c1.7,0,2.8-1.7,2.8-3.3
	C6.2,9.8,5.1,8.2,3.3,8.2z M12,11.3c-2,0-3.5,1.1-4.4,2.4C6.6,15,6.2,16.7,6.2,18c0,1.5,0.9,2.6,2.1,3.3c1.1,0.6,2.5,0.9,3.8,0.9
	s2.6-0.3,3.8-0.9c1.1-0.6,2.1-1.7,2.1-3.3c0-1.3-0.5-2.9-1.4-4.2C15.5,12.4,14,11.3,12,11.3z"/>
</svg>
