<?xml version="1.0" encoding="utf-8"?>
<!-- Generator: Adobe Illustrator 25.4.1, SVG Export Plug-In . SVG Version: 6.00 Build 0)  -->
<svg version="1.1" id="Capa_1" xmlns="http://www.w3.org/2000/svg" xmlns:xlink="http://www.w3.org/1999/xlink" x="0px" y="0px"
	 viewBox="0 0 24 24" style="enable-background:new 0 0 24 24;" xml:space="preserve">
<style type="text/css">
	.st0{clip-path:url(#SVGID_00000041276910867176413400000010585861490592028828_);}
	.st1{fill-rule:evenodd;clip-rule:evenodd;fill:#305AE2;}
</style>
<g>
	<defs>
		<rect id="SVGID_1_" width="24" height="24"/>
	</defs>
	<clipPath id="SVGID_00000149371981066970724820000013596246242707429301_">
		<use xlink:href="#SVGID_1_"  style="overflow:visible;"/>
	</clipPath>
	<g style="clip-path:url(#SVGID_00000149371981066970724820000013596246242707429301_);">
		<path class="st1" d="M18.6,0.7c-1.2,0-2.3,0.3-3,1.1c-0.8,0.8-1.1,1.8-1.1,3s0.3,2.3,1.1,3c0.8,0.8,1.8,1.1,3,1.1s2.3-0.3,3-1.1
			c0.8-0.8,1.1-1.8,1.1-3s-0.3-2.3-1.1-3C20.9,1.1,19.8,0.7,18.6,0.7z M5.4,0.8c-1.2,0-2.3,0.3-3,1.1C1.6,2.7,1.3,3.8,1.3,5
			c0,1.2,0.3,2.3,1.1,3c0.8,0.8,1.8,1.1,3,1.1s2.3-0.3,3-1.1c0.8-0.8,1.1-1.8,1.1-3c0-1.2-0.3-2.3-1.1-3C7.7,1.2,6.6,0.8,5.4,0.8z
			 M9.8,11.2c-1.6-0.5-2.9-0.8-4.3-0.8c-1.4,0-2.7,0.3-4.4,0.8c-0.4,0.1-0.6,0.4-0.6,0.8v0.1c0,2.5,0,5.3,0.5,7.4
			c0.3,1.1,0.7,2.1,1.4,2.9c0.8,0.8,1.8,1.2,3,1.2s2.3-0.4,3-1.2c0.7-0.8,1.2-1.8,1.4-2.9c0.5-2.1,0.5-4.9,0.5-7.4V12
			C10.4,11.6,10.1,11.3,9.8,11.2z M22.9,22.9c-1.6,0.4-3,0.6-4.3,0.6c-1.4,0-2.7-0.2-4.3-0.6c-0.4-0.1-0.6-0.4-0.6-0.8V22
			c0-2.5,0-5.3,0.5-7.5c0.3-1.1,0.7-2.2,1.4-2.9c0.7-0.8,1.8-1.3,3-1.3c1.3,0,2.3,0.5,3,1.3c0.7,0.8,1.2,1.8,1.4,2.9
			c0.5,2.2,0.5,5,0.5,7.5v0.1C23.6,22.5,23.3,22.8,22.9,22.9z"/>
	</g>
</g>
</svg>
